{
    "asset" : {
        "extensions" : {
            "ASOBO_normal_map_convention" : {
                "tangent_space_convention" : "DirectX"
            }
        },
        "generator" : "Extended Khronos glTF Blender I/O v1.0.0",
        "version" : "2.0"
    },
    "extensionsUsed" : [
        "ASOBO_normal_map_convention",
        "ASOBO_tags",
        "ASOBO_material_day_night_switch"
    ],
    "scene" : 0,
    "scenes" : [
        {
            "extras" : {
                "glTF2ExportSettings" : {
                    "export_apply" : 1,
                    "export_colors" : 1,
                    "export_extras" : 1,
                    "export_generate_guid" : 1,
                    "export_lods" : 0,
                    "export_materials" : 1,
                    "export_normals" : 1,
                    "export_tangents" : 1,
                    "export_texcoords" : 1,
                    "export_texture_dir" : "..\\texture\\",
                    "export_xml" : 1,
                    "export_xml_file" : "capitalLand",
                    "use_selection" : 1
                }
            },
            "name" : "Scene",
            "nodes" : [
                0,
                1,
                2,
                3
            ]
        }
    ],
    "nodes" : [
        {
            "mesh" : 0,
            "name" : "Cd1",
            "scale" : [
                0.10000000149011612,
                0.10000000149011612,
                0.10000000149011612
            ]
        },
        {
            "mesh" : 1,
            "name" : "Cd2",
            "scale" : [
                0.10000000149011612,
                0.10000000149011612,
                0.10000000149011612
            ],
            "translation" : [
                55,
                0,
                -55
            ]
        },
        {
            "mesh" : 2,
            "name" : "Cd3",
            "scale" : [
                0.10000000149011612,
                0.10000000149011612,
                0.10000000149011612
            ],
            "translation" : [
                120,
                0,
                -110
            ]
        },
        {
            "extras" : {
                "EDMRenderType" : 4
            },
            "mesh" : 3,
            "name" : "B",
            "rotation" : [
                -0.5,
                -0.5,
                0.5,
                0.5
            ],
            "scale" : [
                0.18000000715255737,
                0.18000000715255737,
                0.18000000715255737
            ],
            "translation" : [
                113,
                80,
                -112
            ]
        }
    ],
    "materials" : [
        {
            "emissiveFactor" : [
                0.1811642348766327,
                0.16826938092708588,
                0.12743771076202393
            ],
            "emissiveTexture" : {
                "index" : 0,
                "texCoord" : 0
            },
            "extensions" : {
                "ASOBO_tags" : {
                    "Collision" : true
                },
                "ASOBO_material_day_night_switch" : {
                    "enabled" : true
                }
            },
            "extras" : {
                "msfs_material_mode" : 1,
                "msfs_albedo_texture" : {
                    "name" : "cd1-t.png",
                    "type" : "Image"
                },
                "msfs_emissive_texture" : {
                    "name" : "cd1-l.png",
                    "type" : "Image"
                },
                "msfs_show_tint" : 1,
                "msfs_show_sss_color" : 0,
                "msfs_show_glass_parameters" : 0,
                "msfs_show_decal_parameters" : 0,
                "msfs_show_fresnel_parameters" : 0,
                "msfs_show_parallax_parameters" : 0,
                "msfs_show_geo_decal_parameters" : 0,
                "msfs_show_albedo" : 1,
                "msfs_show_metallic" : 1,
                "msfs_show_normal" : 1,
                "msfs_show_emissive" : 1,
                "msfs_show_detail_albedo" : 1,
                "msfs_show_detail_metallic" : 1,
                "msfs_show_detail_normal" : 1,
                "msfs_show_blend_mask" : 1,
                "msfs_show_anisotropic_direction" : 0,
                "msfs_show_clearcoat" : 0,
                "msfs_show_behind_glass" : 0,
                "msfs_show_blend_mode" : 1,
                "msfs_show_draworder" : 1,
                "msfs_show_no_cast_shadow" : 1,
                "msfs_show_double_sided" : 1,
                "msfs_show_responsive_aa" : 0,
                "msfs_show_day_night_cycle" : 1,
                "msfs_show_collision_material" : 1,
                "msfs_show_road_material" : 1,
                "msfs_show_ao_use_uv2" : 1,
                "msfs_show_uv_clamp" : 1,
                "msfs_show_alpha_cutoff" : 1,
                "msfs_show_blend_threshold" : 1,
                "msfs_collision_material" : 1,
                "msfs_day_night_cycle" : 1,
                "msfs_color_emissive_mix" : [
                    0.1811642348766327,
                    0.16826938092708588,
                    0.12743771076202393
                ]
            },
            "name" : "mat1",
            "pbrMetallicRoughness" : {
                "baseColorTexture" : {
                    "index" : 1,
                    "texCoord" : 0
                },
                "metallicFactor" : 0,
                "roughnessFactor" : 0.5
            }
        },
        {
            "emissiveFactor" : [
                0.18245641887187958,
                0.1674526035785675,
                0.1268700808286667
            ],
            "emissiveTexture" : {
                "index" : 2,
                "texCoord" : 0
            },
            "extensions" : {
                "ASOBO_tags" : {
                    "Collision" : true
                },
                "ASOBO_material_day_night_switch" : {
                    "enabled" : true
                }
            },
            "extras" : {
                "msfs_material_mode" : 1,
                "msfs_albedo_texture" : {
                    "name" : "cd2-t.png",
                    "type" : "Image"
                },
                "msfs_emissive_texture" : {
                    "name" : "cd2-l.png",
                    "type" : "Image"
                },
                "msfs_show_tint" : 1,
                "msfs_show_sss_color" : 0,
                "msfs_show_glass_parameters" : 0,
                "msfs_show_decal_parameters" : 0,
                "msfs_show_fresnel_parameters" : 0,
                "msfs_show_parallax_parameters" : 0,
                "msfs_show_geo_decal_parameters" : 0,
                "msfs_show_albedo" : 1,
                "msfs_show_metallic" : 1,
                "msfs_show_normal" : 1,
                "msfs_show_emissive" : 1,
                "msfs_show_detail_albedo" : 1,
                "msfs_show_detail_metallic" : 1,
                "msfs_show_detail_normal" : 1,
                "msfs_show_blend_mask" : 1,
                "msfs_show_anisotropic_direction" : 0,
                "msfs_show_clearcoat" : 0,
                "msfs_show_behind_glass" : 0,
                "msfs_show_blend_mode" : 1,
                "msfs_show_draworder" : 1,
                "msfs_show_no_cast_shadow" : 1,
                "msfs_show_double_sided" : 1,
                "msfs_show_responsive_aa" : 0,
                "msfs_show_day_night_cycle" : 1,
                "msfs_show_collision_material" : 1,
                "msfs_show_road_material" : 1,
                "msfs_show_ao_use_uv2" : 1,
                "msfs_show_uv_clamp" : 1,
                "msfs_show_alpha_cutoff" : 1,
                "msfs_show_blend_threshold" : 1,
                "msfs_day_night_cycle" : 1,
                "msfs_collision_material" : 1,
                "msfs_color_emissive_mix" : [
                    0.18245641887187958,
                    0.1674526035785675,
                    0.1268700808286667
                ]
            },
            "name" : "\u6750\u8d28.001",
            "pbrMetallicRoughness" : {
                "baseColorTexture" : {
                    "index" : 3,
                    "texCoord" : 0
                },
                "metallicFactor" : 0,
                "roughnessFactor" : 0.5
            }
        },
        {
            "emissiveFactor" : [
                0.33077794313430786,
                0.30662646889686584,
                0.23036199808120728
            ],
            "emissiveTexture" : {
                "index" : 4,
                "texCoord" : 0
            },
            "extensions" : {
                "ASOBO_tags" : {
                    "Collision" : true
                },
                "ASOBO_material_day_night_switch" : {
                    "enabled" : true
                }
            },
            "extras" : {
                "msfs_material_mode" : 1,
                "msfs_albedo_texture" : {
                    "name" : "cd3-t.png",
                    "type" : "Image"
                },
                "msfs_emissive_texture" : {
                    "name" : "cd3-l.png",
                    "type" : "Image"
                },
                "msfs_show_tint" : 1,
                "msfs_show_sss_color" : 0,
                "msfs_show_glass_parameters" : 0,
                "msfs_show_decal_parameters" : 0,
                "msfs_show_fresnel_parameters" : 0,
                "msfs_show_parallax_parameters" : 0,
                "msfs_show_geo_decal_parameters" : 0,
                "msfs_show_albedo" : 1,
                "msfs_show_metallic" : 1,
                "msfs_show_normal" : 1,
                "msfs_show_emissive" : 1,
                "msfs_show_detail_albedo" : 1,
                "msfs_show_detail_metallic" : 1,
                "msfs_show_detail_normal" : 1,
                "msfs_show_blend_mask" : 1,
                "msfs_show_anisotropic_direction" : 0,
                "msfs_show_clearcoat" : 0,
                "msfs_show_behind_glass" : 0,
                "msfs_show_blend_mode" : 1,
                "msfs_show_draworder" : 1,
                "msfs_show_no_cast_shadow" : 1,
                "msfs_show_double_sided" : 1,
                "msfs_show_responsive_aa" : 0,
                "msfs_show_day_night_cycle" : 1,
                "msfs_show_collision_material" : 1,
                "msfs_show_road_material" : 1,
                "msfs_show_ao_use_uv2" : 1,
                "msfs_show_uv_clamp" : 1,
                "msfs_show_alpha_cutoff" : 1,
                "msfs_show_blend_threshold" : 1,
                "msfs_color_emissive_mix" : [
                    0.33077794313430786,
                    0.30662646889686584,
                    0.23036199808120728
                ],
                "msfs_day_night_cycle" : 1,
                "msfs_collision_material" : 1
            },
            "name" : "\u6750\u8d28",
            "pbrMetallicRoughness" : {
                "baseColorTexture" : {
                    "index" : 5,
                    "texCoord" : 0
                },
                "metallicFactor" : 0,
                "roughnessFactor" : 0.5
            }
        },
        {
            "emissiveFactor" : [
                0,
                0.045933324843645096,
                0.08110001683235168
            ],
            "extensions" : {
                "ASOBO_material_day_night_switch" : {
                    "enabled" : true
                }
            },
            "extras" : {
                "msfs_material_mode" : 1,
                "msfs_show_tint" : 1,
                "msfs_show_sss_color" : 0,
                "msfs_show_glass_parameters" : 0,
                "msfs_show_decal_parameters" : 0,
                "msfs_show_fresnel_parameters" : 0,
                "msfs_show_parallax_parameters" : 0,
                "msfs_show_geo_decal_parameters" : 0,
                "msfs_show_albedo" : 1,
                "msfs_show_metallic" : 1,
                "msfs_show_normal" : 1,
                "msfs_show_emissive" : 1,
                "msfs_show_detail_albedo" : 1,
                "msfs_show_detail_metallic" : 1,
                "msfs_show_detail_normal" : 1,
                "msfs_show_blend_mask" : 1,
                "msfs_show_anisotropic_direction" : 0,
                "msfs_show_clearcoat" : 0,
                "msfs_show_behind_glass" : 0,
                "msfs_show_blend_mode" : 1,
                "msfs_show_draworder" : 1,
                "msfs_show_no_cast_shadow" : 1,
                "msfs_show_double_sided" : 1,
                "msfs_show_responsive_aa" : 0,
                "msfs_show_day_night_cycle" : 1,
                "msfs_show_collision_material" : 1,
                "msfs_show_road_material" : 1,
                "msfs_show_ao_use_uv2" : 1,
                "msfs_show_uv_clamp" : 1,
                "msfs_show_alpha_cutoff" : 1,
                "msfs_show_blend_threshold" : 1,
                "msfs_color_emissive_mix" : [
                    0,
                    0.045933324843645096,
                    0.08110001683235168
                ],
                "msfs_day_night_cycle" : 1,
                "msfs_color_albedo_mix" : [
                    0,
                    0.3564002215862274,
                    0.6724433302879333
                ]
            },
            "name" : "matb",
            "pbrMetallicRoughness" : {
                "baseColorFactor" : [
                    0,
                    0.3564002215862274,
                    0.6724433302879333,
                    1
                ],
                "metallicFactor" : 0,
                "roughnessFactor" : 0.5
            }
        }
    ],
    "meshes" : [
        {
            "name" : "Cd1",
            "primitives" : [
                {
                    "attributes" : {
                        "POSITION" : 0,
                        "NORMAL" : 1,
                        "TANGENT" : 2,
                        "TEXCOORD_0" : 3
                    },
                    "indices" : 4,
                    "material" : 0
                }
            ]
        },
        {
            "name" : "Cd2",
            "primitives" : [
                {
                    "attributes" : {
                        "POSITION" : 5,
                        "NORMAL" : 6,
                        "TANGENT" : 7,
                        "TEXCOORD_0" : 8
                    },
                    "indices" : 9,
                    "material" : 1
                }
            ]
        },
        {
            "name" : "Cd3",
            "primitives" : [
                {
                    "attributes" : {
                        "POSITION" : 10,
                        "NORMAL" : 11,
                        "TANGENT" : 12,
                        "TEXCOORD_0" : 13
                    },
                    "indices" : 14,
                    "material" : 2
                }
            ]
        },
        {
            "name" : "B",
            "primitives" : [
                {
                    "attributes" : {
                        "POSITION" : 15,
                        "NORMAL" : 16
                    },
                    "indices" : 17,
                    "material" : 3
                }
            ]
        }
    ],
    "textures" : [
        {
            "source" : 0
        },
        {
            "source" : 1
        },
        {
            "source" : 2
        },
        {
            "source" : 3
        },
        {
            "source" : 4
        },
        {
            "source" : 5
        }
    ],
    "images" : [
        {
            "mimeType" : "image/png",
            "name" : "cd1-l",
            "uri" : "cd1-l.png"
        },
        {
            "mimeType" : "image/png",
            "name" : "cd1-t",
            "uri" : "cd1-t.png"
        },
        {
            "mimeType" : "image/png",
            "name" : "cd2-l",
            "uri" : "cd2-l.png"
        },
        {
            "mimeType" : "image/png",
            "name" : "cd2-t",
            "uri" : "cd2-t.png"
        },
        {
            "mimeType" : "image/png",
            "name" : "cd3-l",
            "uri" : "cd3-l.png"
        },
        {
            "mimeType" : "image/png",
            "name" : "cd3-t",
            "uri" : "cd3-t.png"
        }
    ],
    "accessors" : [
        {
            "bufferView" : 0,
            "componentType" : 5126,
            "count" : 84,
            "max" : [
                1200,
                1080,
                0
            ],
            "min" : [
                0,
                0,
                -400
            ],
            "type" : "VEC3"
        },
        {
            "bufferView" : 1,
            "componentType" : 5126,
            "count" : 84,
            "type" : "VEC3"
        },
        {
            "bufferView" : 2,
            "componentType" : 5126,
            "count" : 84,
            "type" : "VEC4"
        },
        {
            "bufferView" : 3,
            "componentType" : 5126,
            "count" : 84,
            "type" : "VEC2"
        },
        {
            "bufferView" : 4,
            "componentType" : 5123,
            "count" : 108,
            "type" : "SCALAR"
        },
        {
            "bufferView" : 5,
            "componentType" : 5126,
            "count" : 64,
            "max" : [
                1100,
                920,
                0
            ],
            "min" : [
                0,
                0,
                -400
            ],
            "type" : "VEC3"
        },
        {
            "bufferView" : 6,
            "componentType" : 5126,
            "count" : 64,
            "type" : "VEC3"
        },
        {
            "bufferView" : 7,
            "componentType" : 5126,
            "count" : 64,
            "type" : "VEC4"
        },
        {
            "bufferView" : 8,
            "componentType" : 5126,
            "count" : 64,
            "type" : "VEC2"
        },
        {
            "bufferView" : 9,
            "componentType" : 5123,
            "count" : 84,
            "type" : "SCALAR"
        },
        {
            "bufferView" : 10,
            "componentType" : 5126,
            "count" : 32,
            "max" : [
                400,
                800,
                0
            ],
            "min" : [
                0,
                0,
                -400
            ],
            "type" : "VEC3"
        },
        {
            "bufferView" : 11,
            "componentType" : 5126,
            "count" : 32,
            "type" : "VEC3"
        },
        {
            "bufferView" : 12,
            "componentType" : 5126,
            "count" : 32,
            "type" : "VEC4"
        },
        {
            "bufferView" : 13,
            "componentType" : 5126,
            "count" : 32,
            "type" : "VEC2"
        },
        {
            "bufferView" : 14,
            "componentType" : 5123,
            "count" : 36,
            "type" : "SCALAR"
        },
        {
            "bufferView" : 15,
            "componentType" : 5126,
            "count" : 803,
            "max" : [
                98,
                20,
                -46
            ],
            "min" : [
                5.461881637573242,
                0,
                -245
            ],
            "type" : "VEC3"
        },
        {
            "bufferView" : 16,
            "componentType" : 5126,
            "count" : 803,
            "type" : "VEC3"
        },
        {
            "bufferView" : 17,
            "componentType" : 5123,
            "count" : 1320,
            "type" : "SCALAR"
        }
    ],
    "bufferViews" : [
        {
            "buffer" : 0,
            "byteLength" : 1008,
            "byteOffset" : 0
        },
        {
            "buffer" : 0,
            "byteLength" : 1008,
            "byteOffset" : 1008
        },
        {
            "buffer" : 0,
            "byteLength" : 1344,
            "byteOffset" : 2016
        },
        {
            "buffer" : 0,
            "byteLength" : 672,
            "byteOffset" : 3360
        },
        {
            "buffer" : 0,
            "byteLength" : 216,
            "byteOffset" : 4032
        },
        {
            "buffer" : 0,
            "byteLength" : 768,
            "byteOffset" : 4248
        },
        {
            "buffer" : 0,
            "byteLength" : 768,
            "byteOffset" : 5016
        },
        {
            "buffer" : 0,
            "byteLength" : 1024,
            "byteOffset" : 5784
        },
        {
            "buffer" : 0,
            "byteLength" : 512,
            "byteOffset" : 6808
        },
        {
            "buffer" : 0,
            "byteLength" : 168,
            "byteOffset" : 7320
        },
        {
            "buffer" : 0,
            "byteLength" : 384,
            "byteOffset" : 7488
        },
        {
            "buffer" : 0,
            "byteLength" : 384,
            "byteOffset" : 7872
        },
        {
            "buffer" : 0,
            "byteLength" : 512,
            "byteOffset" : 8256
        },
        {
            "buffer" : 0,
            "byteLength" : 256,
            "byteOffset" : 8768
        },
        {
            "buffer" : 0,
            "byteLength" : 72,
            "byteOffset" : 9024
        },
        {
            "buffer" : 0,
            "byteLength" : 9636,
            "byteOffset" : 9096
        },
        {
            "buffer" : 0,
            "byteLength" : 9636,
            "byteOffset" : 18732
        },
        {
            "buffer" : 0,
            "byteLength" : 2640,
            "byteOffset" : 28368
        }
    ],
    "buffers" : [
        {
            "byteLength" : 31008,
            "uri" : "capitalLand.bin"
        }
    ]
}
