{"accessors":[{"bufferView":0,"componentType":5126,"count":84,"min":[0.0,0.0,-400.0],"max":[1200.0,1080.0,-0.0],"type":"VEC3","name":"Cd1_vertices#0_POSITION"},{"bufferView":0,"byteOffset":12,"componentType":5120,"count":84,"type":"VEC4","name":"Cd1_vertices#0_TANGENT"},{"bufferView":0,"byteOffset":16,"componentType":5120,"count":84,"type":"VEC4","name":"Cd1_vertices#0_NORMAL"},{"bufferView":0,"byteOffset":20,"componentType":5122,"count":84,"type":"VEC2","name":"Cd1_vertices#0_TEXCOORD_0"},{"bufferView":0,"byteOffset":24,"componentType":5122,"count":84,"type":"VEC2","name":"Cd1_vertices#0_TEXCOORD_1"},{"bufferView":0,"byteOffset":28,"componentType":5123,"count":84,"type":"VEC4","name":"Cd1_vertices#0_COLOR_0"},{"bufferView":1,"componentType":5123,"count":108,"type":"SCALAR","name":"Cd1_indices#0"},{"bufferView":0,"byteOffset":3024,"componentType":5126,"count":64,"min":[0.0,0.0,-400.0],"max":[1100.0,920.0,-0.0],"type":"VEC3","name":"Cd2_vertices#0_POSITION"},{"bufferView":0,"byteOffset":3036,"componentType":5120,"count":64,"type":"VEC4","name":"Cd2_vertices#0_TANGENT"},{"bufferView":0,"byteOffset":3040,"componentType":5120,"count":64,"type":"VEC4","name":"Cd2_vertices#0_NORMAL"},{"bufferView":0,"byteOffset":3044,"componentType":5122,"count":64,"type":"VEC2","name":"Cd2_vertices#0_TEXCOORD_0"},{"bufferView":0,"byteOffset":3048,"componentType":5122,"count":64,"type":"VEC2","name":"Cd2_vertices#0_TEXCOORD_1"},{"bufferView":0,"byteOffset":3052,"componentType":5123,"count":64,"type":"VEC4","name":"Cd2_vertices#0_COLOR_0"},{"bufferView":1,"byteOffset":216,"componentType":5123,"count":84,"type":"SCALAR","name":"Cd2_indices#0"},{"bufferView":0,"byteOffset":5328,"componentType":5126,"count":32,"min":[0.0,0.0,-400.0],"max":[400.0,800.0,-0.0],"type":"VEC3","name":"Cd3_vertices#0_POSITION"},{"bufferView":0,"byteOffset":5340,"componentType":5120,"count":32,"type":"VEC4","name":"Cd3_vertices#0_TANGENT"},{"bufferView":0,"byteOffset":5344,"componentType":5120,"count":32,"type":"VEC4","name":"Cd3_vertices#0_NORMAL"},{"bufferView":0,"byteOffset":5348,"componentType":5122,"count":32,"type":"VEC2","name":"Cd3_vertices#0_TEXCOORD_0"},{"bufferView":0,"byteOffset":5352,"componentType":5122,"count":32,"type":"VEC2","name":"Cd3_vertices#0_TEXCOORD_1"},{"bufferView":0,"byteOffset":5356,"componentType":5123,"count":32,"type":"VEC4","name":"Cd3_vertices#0_COLOR_0"},{"bufferView":1,"byteOffset":384,"componentType":5123,"count":36,"type":"SCALAR","name":"Cd3_indices#0"},{"bufferView":0,"byteOffset":6480,"componentType":5126,"count":832,"min":[5.461881637573242,0.0,-245.0],"max":[98.0,20.0,-46.0],"type":"VEC3","name":"B_vertices#0_POSITION"},{"bufferView":0,"byteOffset":6492,"componentType":5120,"count":832,"type":"VEC4","name":"B_vertices#0_TANGENT"},{"bufferView":0,"byteOffset":6496,"componentType":5120,"count":832,"type":"VEC4","name":"B_vertices#0_NORMAL"},{"bufferView":0,"byteOffset":6500,"componentType":5122,"count":832,"type":"VEC2","name":"B_vertices#0_TEXCOORD_0"},{"bufferView":0,"byteOffset":6504,"componentType":5122,"count":832,"type":"VEC2","name":"B_vertices#0_TEXCOORD_1"},{"bufferView":0,"byteOffset":6508,"componentType":5123,"count":832,"type":"VEC4","name":"B_vertices#0_COLOR_0"},{"bufferView":1,"byteOffset":456,"componentType":5123,"count":1320,"type":"SCALAR","name":"B_indices#0"}],"asset":{"generator":"Extended Khronos glTF Blender I/O v1.0.0","version":"2.0","extensions":{"ASOBO_asset_optimized":{"BoundingBoxMax":[1200.0,1080.0,0.0],"BoundingBoxMin":[0.0,0.0,-400.0],"MajorVersion":4,"MinorVersion":2},"ASOBO_normal_map_convention":{"tangent_space_convention":"DirectX"}}},"bufferViews":[{"buffer":0,"byteLength":36432,"byteStride":36,"byteOffset":48,"target":34962,"name":"BufferViewVertexND"},{"buffer":0,"byteLength":3096,"byteOffset":36584,"target":34963,"name":"BufferViewIndex"}],"extensionsUsed":["ASOBO_normal_map_convention","ASOBO_tags","ASOBO_material_day_night_switch","MSFT_texture_dds","ASOBO_asset_optimized"],"extensionsRequired":["MSFT_texture_dds"],"materials":[{"name":"mat1","emissiveTexture":{"index":0},"emissiveFactor":[0.1811642348766327,0.16826938092708589,0.12743771076202393],"pbrMetallicRoughness":{"metallicFactor":0.0,"roughnessFactor":0.5,"baseColorTexture":{"index":1}},"extensions":{"ASOBO_material_day_night_switch":{}}},{"name":"材质.001","emissiveTexture":{"index":2},"emissiveFactor":[0.18245641887187959,0.1674526035785675,0.1268700808286667],"pbrMetallicRoughness":{"metallicFactor":0.0,"roughnessFactor":0.5,"baseColorTexture":{"index":3}},"extensions":{"ASOBO_material_day_night_switch":{}}},{"name":"材质","emissiveTexture":{"index":4},"emissiveFactor":[0.33077794313430788,0.30662646889686587,0.23036199808120728],"pbrMetallicRoughness":{"metallicFactor":0.0,"roughnessFactor":0.5,"baseColorTexture":{"index":5}},"extensions":{"ASOBO_material_day_night_switch":{}}},{"name":"matb","emissiveFactor":[0.0,0.045933324843645099,0.08110001683235169],"pbrMetallicRoughness":{"baseColorFactor":[0.0,0.3564002215862274,0.6724433302879334,1.0],"metallicFactor":0.0,"roughnessFactor":0.5},"extensions":{"ASOBO_material_day_night_switch":{}}}],"meshes":[{"primitives":[{"attributes":{"COLOR_0":5,"NORMAL":2,"POSITION":0,"TANGENT":1,"TEXCOORD_0":3,"TEXCOORD_1":4},"indices":6,"material":0,"mode":4,"extras":{"ASOBO_primitive":{"PrimitiveCount":36,"VertexType":"VTX","VertexVersion":2}}}],"name":"Cd1"},{"primitives":[{"attributes":{"COLOR_0":12,"NORMAL":9,"POSITION":7,"TANGENT":8,"TEXCOORD_0":10,"TEXCOORD_1":11},"indices":13,"material":1,"mode":4,"extras":{"ASOBO_primitive":{"PrimitiveCount":28,"VertexType":"VTX","VertexVersion":2}}}],"name":"Cd2"},{"primitives":[{"attributes":{"COLOR_0":19,"NORMAL":16,"POSITION":14,"TANGENT":15,"TEXCOORD_0":17,"TEXCOORD_1":18},"indices":20,"material":2,"mode":4,"extras":{"ASOBO_primitive":{"PrimitiveCount":12,"VertexType":"VTX","VertexVersion":2}}}],"name":"Cd3"},{"primitives":[{"attributes":{"COLOR_0":26,"NORMAL":23,"POSITION":21,"TANGENT":22,"TEXCOORD_0":24,"TEXCOORD_1":25},"indices":27,"material":3,"mode":4,"extras":{"ASOBO_primitive":{"PrimitiveCount":440,"VertexType":"VTX","VertexVersion":2}}}],"name":"B"}],"nodes":[{"scale":[0.10000000149011612,0.10000000149011612,0.10000000149011612],"mesh":0,"name":"Cd1"},{"translation":[55.0,0.0,-55.0],"scale":[0.10000000149011612,0.10000000149011612,0.10000000149011612],"mesh":1,"name":"Cd2"},{"translation":[120.0,0.0,-110.0],"scale":[0.10000000149011612,0.10000000149011612,0.10000000149011612],"mesh":2,"name":"Cd3"},{"translation":[113.0,80.0,-112.0],"rotation":[-0.5,-0.5,0.5,0.5],"scale":[0.18000000715255738,0.18000000715255738,0.18000000715255738],"mesh":3,"extras":{"EDMRenderType":4},"name":"B"}],"scene":0,"scenes":[{"nodes":[0,1,2,3],"name":"Scene","extras":{"glTF2ExportSettings":{"export_apply":1,"export_colors":1,"export_extras":1,"export_generate_guid":1,"export_lods":0,"export_materials":1,"export_normals":1,"export_tangents":1,"export_texcoords":1,"export_texture_dir":"..\\texture\\","export_xml":1,"export_xml_file":"capitalLand","use_selection":1}}}],"textures":[{"extensions":{"MSFT_texture_dds":{"source":0}}},{"extensions":{"MSFT_texture_dds":{"source":1}}},{"extensions":{"MSFT_texture_dds":{"source":2}}},{"extensions":{"MSFT_texture_dds":{"source":3}}},{"extensions":{"MSFT_texture_dds":{"source":4}}},{"extensions":{"MSFT_texture_dds":{"source":5}}}],"buffers":[{"byteLength":39680,"uri":"capitalLand.bin"}],"images":[{"uri":"CD1-L.PNG.DDS","name":"cd1-l","extras":"ASOBO_image_converted_meta"},{"uri":"CD1-T.PNG.DDS","name":"cd1-t","extras":"ASOBO_image_converted_meta"},{"uri":"CD2-L.PNG.DDS","name":"cd2-l","extras":"ASOBO_image_converted_meta"},{"uri":"CD2-T.PNG.DDS","name":"cd2-t","extras":"ASOBO_image_converted_meta"},{"uri":"CD3-L.PNG.DDS","name":"cd3-l","extras":"ASOBO_image_converted_meta"},{"uri":"CD3-T.PNG.DDS","name":"cd3-t","extras":"ASOBO_image_converted_meta"}]}
